<svg xmlns="http://www.w3.org/2000/svg" viewBox="0 0 500 400">
<g transform="translate(230 92)">
<ellipse cx="80" cy="112" rx="42" ry="50" fill="#f5b828" stroke="#4f3006" stroke-width="5"/>
<ellipse cx="47" cy="75" rx="26" ry="35" fill="#fff" fill-opacity=".72" stroke="#4f3006" stroke-width="4" transform="rotate(-28 47 75)"/>
<ellipse cx="113" cy="75" rx="26" ry="35" fill="#fff" fill-opacity=".72" stroke="#4f3006" stroke-width="4" transform="rotate(28 113 75)"/>
<path d="M41 110h78M38 132h84M48 153h64" stroke="#4f3006" stroke-width="9"/>
<circle cx="67" cy="93" r="6" fill="#241235"/><circle cx="94" cy="93" r="6" fill="#241235"/>
<path d="M45 79 80 18l27 61z" fill="#301344" stroke="#160b21" stroke-width="4"/>
<path d="M34 80h94c8 0 12 5 7 10-18 14-79 14-101 0-6-4-5-10 0-10z" fill="#492064" stroke="#160b21" stroke-width="4"/>
<rect x="72" y="70" width="17" height="11" rx="2" fill="#ffc857"/>
<path d="M73 105l6 8 5-8 6 8 6-8" fill="none" stroke="#5b2208" stroke-width="4"/>
<path d="M78 112l4 9M91 112l-4 9" stroke="#fff9e8" stroke-width="3"/>
</g>
<g transform="translate(20 282)"><path d="M0 64c0-32 24-54 55-54s55 22 55 54c0 31-25 54-55 54S0 95 0 64z" fill="#f47a24" stroke="#b94e0b" stroke-width="5"/><rect x="49" y="-2" width="14" height="20" rx="5" fill="#597337"/><path d="m25 55 14-10 13 11-14 6zm60 0-14-10-13 11 14 6zM25 78c17 14 43 14 61 0L75 97 57 88 40 97z" fill="#2a1539"/></g>
</svg>